<?xml version="1.0" encoding="UTF-8"?>
<!-- Generated by Pixelmator Pro 3.7.1 -->
<svg width="1000" height="1000" viewBox="0 0 1000 1000" xmlns="http://www.w3.org/2000/svg">
    <g id="Group">
        <path id="Rectangle-copy-8" fill="#0000ff" fill-opacity="0.295894" fill-rule="evenodd" stroke="none" d="M 200 647 L 500 647 L 500 347 L 200 347 Z"/>
        <path id="Rectangle-copy-5" fill="#00ffff" fill-opacity="0.283993" fill-rule="evenodd" stroke="none" d="M 200 942 C 200 944.761414 202.238571 947 205 947 L 500 947 L 500 647 L 200 647 Z"/>
        <path id="Rectangle-copy-4" fill="#00ff00" fill-opacity="0.258249" fill-rule="evenodd" stroke="none" d="M 500 947 L 795 947 C 797.761414 947 800 944.761414 800 942 L 800 647 L 500 647 Z"/>
        <path id="Rectangle-copy-6" fill="#ffff00" fill-opacity="0.240516" fill-rule="evenodd" stroke="none" d="M 500 647 L 800 647 L 800 347 L 500 347 Z"/>
        <path id="Rectangle-copy-7" fill="#ff7f00" fill-opacity="0.220331" fill-rule="evenodd" stroke="none" d="M 500 347 L 800 347 L 800 52 C 800 49.238586 797.761414 47 795 47 L 500 47 Z"/>
        <path id="Rectangle-copy-3" fill="#ff0000" fill-opacity="0.197729" fill-rule="evenodd" stroke="none" d="M 200 347 L 500 347 L 500 47 L 205 47 C 202.238571 47 200 49.238586 200 52 Z"/>
        <text id="K" xml:space="preserve" x="235.2" y="314" font-family="Helvetica Neue" font-size="300" font-weight="700" fill="#005a5a" fill-opacity="0.796852" letter-spacing="9">K</text>
        <text id="O" xml:space="preserve" x="526.8" y="314" font-family="Helvetica Neue" font-size="300" font-weight="700" fill="#0b2e83" fill-opacity="0.797507" letter-spacing="9">O</text>
        <text id="D" xml:space="preserve" x="532.35" y="609" font-family="Helvetica Neue" font-size="300" font-weight="700" fill="#4b0082" fill-opacity="0.797507" letter-spacing="9">D</text>
        <text id="text1" xml:space="preserve" x="535.2" y="909" font-family="Helvetica Neue" font-size="300" font-weight="700" fill="#6a006a" fill-opacity="0.797507" letter-spacing="9">K</text>
        <text id="text2" xml:space="preserve" x="226.8" y="909" font-family="Helvetica Neue" font-size="300" font-weight="700" fill="#7a001e" fill-opacity="0.797507" letter-spacing="9">O</text>
        <text id="text3" xml:space="preserve" x="232.35" y="609" font-family="Helvetica Neue" font-size="300" font-weight="700" fill="#ffd200" fill-opacity="0.603293" letter-spacing="9">D</text>
    </g>
</svg>
